<svg width="20" height="20" viewBox="0 0 20 20" fill="none" xmlns="http://www.w3.org/2000/svg">
<path d="M8.08766 2.8612L9.55057 3.79905L10.0003 4.08738L10.4501 3.79905L11.913 2.8612L12.711 4.40486L12.9563 4.87944L13.49 4.85461L15.2258 4.77386L15.1451 6.5097L15.1202 7.04337L15.5948 7.2887L17.1385 8.08669L16.2006 9.5496L15.9123 9.99935L16.2006 10.4491L17.1385 11.912L15.5948 12.71L15.1202 12.9553L15.1451 13.489L15.2258 15.2248L13.49 15.1441L12.9563 15.1193L12.711 15.5938L11.913 17.1375L10.4501 16.1996L10.0003 15.9113L9.55057 16.1996L8.08766 17.1375L7.28967 15.5938L7.04434 15.1193L6.51068 15.1441L4.77484 15.2248L4.85559 13.489L4.88041 12.9553L4.40584 12.71L2.86218 11.912L3.80003 10.4491L4.08836 9.99935L3.80003 9.54959L2.86218 8.08669L4.40584 7.2887L4.88041 7.04337L4.85559 6.5097L4.77484 4.77386L6.51068 4.85461L7.04434 4.87944L7.28967 4.40486L8.08766 2.8612Z" stroke="white" stroke-width="1.66667"/>
</svg>
