<svg width="16" height="17" viewBox="0 0 16 17" fill="none" xmlns="http://www.w3.org/2000/svg">
<mask id="mask0_3007_5081" style="mask-type:alpha" maskUnits="userSpaceOnUse" x="0" y="0" width="16" height="17">
<rect y="0.25" width="16" height="16" fill="#D9D9D9"/>
</mask>
<g mask="url(#mask0_3007_5081)">
<path d="M10.767 8.91733H3.33366C3.14477 8.91733 2.98644 8.85344 2.85866 8.72566C2.73088 8.59788 2.66699 8.43955 2.66699 8.25066C2.66699 8.06177 2.73088 7.90344 2.85866 7.77566C2.98644 7.64788 3.14477 7.58399 3.33366 7.58399H10.767L8.86699 5.68399C8.73366 5.55066 8.66977 5.3951 8.67533 5.21733C8.68088 5.03955 8.74477 4.88399 8.86699 4.75066C9.00033 4.61733 9.15866 4.54788 9.34199 4.54233C9.52533 4.53677 9.68366 4.60066 9.81699 4.73399L12.867 7.78399C12.9337 7.85066 12.9809 7.92288 13.0087 8.00066C13.0364 8.07844 13.0503 8.16177 13.0503 8.25066C13.0503 8.33955 13.0364 8.42288 13.0087 8.50066C12.9809 8.57844 12.9337 8.65066 12.867 8.71733L9.81699 11.7673C9.68366 11.9007 9.52533 11.9645 9.34199 11.959C9.15866 11.9534 9.00033 11.884 8.86699 11.7507C8.74477 11.6173 8.68088 11.4618 8.67533 11.284C8.66977 11.1062 8.73366 10.9507 8.86699 10.8173L10.767 8.91733Z" fill="#A0A0A6"/>
</g>
</svg>
