<svg width="16" height="16" viewBox="0 0 16 16" fill="none" xmlns="http://www.w3.org/2000/svg">
<g clip-path="url(#clip0_2918_39)">
<mask id="mask0_2918_39" style="mask-type:alpha" maskUnits="userSpaceOnUse" x="0" y="0" width="16" height="16">
<rect width="16" height="16" fill="#D9D9D9"/>
</mask>
<g mask="url(#mask0_2918_39)">
<path d="M6.01851 8.81583L8.58801 11.3853C8.75179 11.5491 8.83523 11.743 8.83834 11.967C8.84157 12.1909 8.76007 12.3886 8.59384 12.56C8.42762 12.7209 8.23257 12.7998 8.00868 12.7967C7.78479 12.7936 7.59079 12.7099 7.42668 12.5457L3.46368 8.5775C3.38479 8.4985 3.32357 8.40828 3.28001 8.30683C3.23657 8.20528 3.21484 8.10183 3.21484 7.9965C3.21484 7.89117 3.23657 7.78778 3.28001 7.68633C3.32357 7.58478 3.38251 7.49678 3.45684 7.42233L7.43301 3.44633C7.60545 3.27378 7.8014 3.1875 8.02084 3.1875C8.2404 3.1875 8.4314 3.27378 8.59384 3.44633C8.76007 3.60878 8.84318 3.80133 8.84318 4.024C8.84318 4.24656 8.76096 4.44006 8.59651 4.6045L6.01851 7.1825H12.3043C12.5308 7.1825 12.7235 7.26167 12.8823 7.42C13.0412 7.57822 13.1207 7.77011 13.1207 7.99567C13.1207 8.22122 13.0412 8.41428 12.8823 8.57483C12.7235 8.7355 12.5308 8.81583 12.3043 8.81583H6.01851Z" fill="#4B4B4E"/>
</g>
</g>
<defs>
<clipPath id="clip0_2918_39">
<rect width="16" height="16" fill="white"/>
</clipPath>
</defs>
</svg>
