<svg width="20" height="21" viewBox="0 0 20 21" fill="none" xmlns="http://www.w3.org/2000/svg">
<rect y="0.25" width="20" height="20" rx="4" fill="#EBECF1"/>
<g clip-path="url(#clip0_3007_5073)">
<mask id="mask0_3007_5073" style="mask-type:alpha" maskUnits="userSpaceOnUse" x="2" y="2" width="16" height="17">
<rect x="2" y="2.25" width="16" height="16" fill="#D9D9D9"/>
</mask>
<g mask="url(#mask0_3007_5073)">
<path d="M11.6042 14.2496C11.1572 14.2496 10.7782 14.0953 10.4671 13.7868C10.1559 13.4781 10.0004 13.1003 10.0004 12.6534C10.0004 12.2064 10.1547 11.8274 10.4632 11.5163C10.7719 11.2052 11.1497 11.0496 11.5966 11.0496C12.0436 11.0496 12.4226 11.2039 12.7337 11.5124C13.0448 11.8211 13.2004 12.1989 13.2004 12.6458C13.2004 13.0928 13.0461 13.4718 12.7376 13.7829C12.4289 14.0941 12.0511 14.2496 11.6042 14.2496ZM5.60039 16.6496C5.27039 16.6496 4.98789 16.5302 4.75289 16.2913C4.51789 16.0524 4.40039 15.7718 4.40039 15.4496V6.64961C4.40039 6.32739 4.51789 6.04683 4.75289 5.80794C4.98789 5.56905 5.27039 5.44961 5.60039 5.44961H6.80039V4.44961C6.80039 4.27961 6.85756 4.13711 6.97189 4.02211C7.08622 3.90711 7.22789 3.84961 7.39689 3.84961C7.56589 3.84961 7.70872 3.90711 7.82539 4.02211C7.94206 4.13711 8.00039 4.27961 8.00039 4.44961V5.44961H12.0004V4.44961C12.0004 4.27961 12.0576 4.13711 12.1719 4.02211C12.2862 3.90711 12.4279 3.84961 12.5969 3.84961C12.7659 3.84961 12.9087 3.90711 13.0254 4.02211C13.1421 4.13711 13.2004 4.27961 13.2004 4.44961V5.44961H14.4004C14.7304 5.44961 15.0129 5.56905 15.2479 5.80794C15.4829 6.04683 15.6004 6.32739 15.6004 6.64961V15.4496C15.6004 15.7718 15.4829 16.0524 15.2479 16.2913C15.0129 16.5302 14.7304 16.6496 14.4004 16.6496H5.60039ZM5.60039 15.4496H14.4004V9.44961H5.60039V15.4496Z" fill="#75757A"/>
</g>
</g>
<defs>
<clipPath id="clip0_3007_5073">
<rect width="16" height="16" fill="white" transform="translate(2 2.25)"/>
</clipPath>
</defs>
</svg>
