<svg width="25" height="25" viewBox="0 0 25 25" fill="none" xmlns="http://www.w3.org/2000/svg">
<g clip-path="url(#clip0_2822_438984)">
<mask id="mask0_2822_438984" style="mask-type:alpha" maskUnits="userSpaceOnUse" x="0" y="0" width="25" height="25">
<rect x="0.5" y="0.5" width="24" height="24" fill="#D9D9D9"/>
</mask>
<g mask="url(#mask0_2822_438984)">
<path d="M12.5001 22.7034C11.085 22.7034 9.75704 22.4359 8.51638 21.9009C7.27588 21.3659 6.19662 20.6395 5.27863 19.7216C4.36079 18.8036 3.63437 17.7244 3.09937 16.4839C2.56437 15.2432 2.29688 13.9153 2.29688 12.5001C2.29688 11.085 2.56437 9.75704 3.09937 8.51638C3.63437 7.27588 4.36079 6.19663 5.27863 5.27863C6.19662 4.36079 7.27588 3.63437 8.51638 3.09937C9.75704 2.56437 11.085 2.29688 12.5001 2.29688C13.2603 2.29688 14.0046 2.37954 14.7331 2.54487C15.4615 2.71037 16.1637 2.95212 16.8399 3.27012C17.1217 3.40346 17.3061 3.62146 17.3931 3.92413C17.48 4.22663 17.4321 4.51046 17.2496 4.77563C17.067 5.04479 16.8182 5.22071 16.5034 5.30338C16.1885 5.38604 15.8779 5.36071 15.5714 5.22738C15.0859 5.01721 14.5835 4.85537 14.0644 4.74187C13.545 4.62854 13.0236 4.57188 12.5001 4.57188C10.3035 4.57188 8.43288 5.34304 6.88838 6.88537C5.34404 8.42787 4.57187 10.2995 4.57187 12.5001C4.57187 14.7008 5.34404 16.5724 6.88838 18.1149C8.43288 19.6572 10.3035 20.4284 12.5001 20.4284C14.693 20.4284 16.5625 19.6582 18.1089 18.1179C19.6552 16.5774 20.4284 14.7128 20.4284 12.5241C20.4284 12.4226 20.4252 12.3243 20.4189 12.2291C20.4125 12.1341 20.403 12.0359 20.3904 11.9344C20.365 11.6072 20.4351 11.3015 20.6006 11.0171C20.7663 10.733 21.0087 10.5452 21.3279 10.4539C21.6344 10.3665 21.9182 10.4015 22.1794 10.5589C22.4407 10.716 22.588 10.9479 22.6214 11.2544C22.6507 11.4599 22.6717 11.6644 22.6844 11.8679C22.697 12.0712 22.7034 12.282 22.7034 12.5001C22.7034 13.9153 22.4359 15.2432 21.9009 16.4839C21.3659 17.7244 20.6395 18.8036 19.7216 19.7216C18.8036 20.6395 17.7244 21.3659 16.4839 21.9009C15.2432 22.4359 13.9153 22.7034 12.5001 22.7034ZM11.0821 14.0909L20.3524 4.79588C20.5595 4.58854 20.8175 4.48171 21.1264 4.47538C21.4354 4.46904 21.6998 4.57588 21.9196 4.79588C22.127 5.00304 22.2306 5.26421 22.2306 5.57937C22.2306 5.89471 22.127 6.15596 21.9196 6.36313L11.8839 16.4181C11.6559 16.646 11.3886 16.7599 11.0821 16.7599C10.7756 16.7599 10.5085 16.646 10.2806 16.4181L7.52012 13.6576C7.31296 13.4505 7.20937 13.1903 7.20937 12.8771C7.20937 12.5638 7.31296 12.3035 7.52012 12.0964C7.72746 11.889 7.98871 11.7854 8.30387 11.7854C8.61921 11.7854 8.88046 11.889 9.08763 12.0964L11.0821 14.0909Z" fill="#39D551"/>
</g>
</g>
<defs>
<clipPath id="clip0_2822_438984">
<rect width="24" height="24" fill="white" transform="translate(0.5 0.5)"/>
</clipPath>
</defs>
</svg>
