<svg width="16" height="17" viewBox="0 0 16 17" fill="none" xmlns="http://www.w3.org/2000/svg">
  <path
    d="M7.14961 10.9224L11.1163 6.97244L10.2663 6.12244L7.14961 9.22244L5.73294 7.82244L4.88294 8.67244L7.14961 10.9224ZM7.99961 14.9224C7.12183 14.9224 6.29405 14.7558 5.51628 14.4224C4.7385 14.0891 4.05794 13.6308 3.47461 13.0474C2.89128 12.4641 2.43294 11.7835 2.09961 11.0058C1.76628 10.228 1.59961 9.40021 1.59961 8.52244C1.59961 7.63355 1.76628 6.80299 2.09961 6.03077C2.43294 5.25855 2.89128 4.58077 3.47461 3.99744C4.05794 3.4141 4.7385 2.95577 5.51628 2.62244C6.29405 2.2891 7.12183 2.12244 7.99961 2.12244C8.8885 2.12244 9.71905 2.2891 10.4913 2.62244C11.2635 2.95577 11.9413 3.4141 12.5246 3.99744C13.1079 4.58077 13.5663 5.25855 13.8996 6.03077C14.2329 6.80299 14.3996 7.63355 14.3996 8.52244C14.3996 9.40021 14.2329 10.228 13.8996 11.0058C13.5663 11.7835 13.1079 12.4641 12.5246 13.0474C11.9413 13.6308 11.2635 14.0891 10.4913 14.4224C9.71905 14.7558 8.8885 14.9224 7.99961 14.9224Z"
    fill="#39D551"
  />
</svg>
