<svg width="18" height="18" viewBox="0 0 18 18" fill="none" xmlns="http://www.w3.org/2000/svg">
<path d="M9.00158 15.7219C8.07358 15.7219 7.20186 15.5474 6.38642 15.1984C5.57097 14.8493 4.85742 14.369 4.24575 13.7574C3.63419 13.1457 3.15386 12.4322 2.80475 11.6168C2.45575 10.8013 2.28125 9.92958 2.28125 9.00158C2.28125 8.06247 2.45575 7.18797 2.80475 6.37808C3.15386 5.56819 3.63419 4.85742 4.24575 4.24575C4.85742 3.63419 5.57097 3.15386 6.38642 2.80475C7.20186 2.45575 8.07358 2.28125 9.00158 2.28125C9.47214 2.28125 9.94219 2.33103 10.4117 2.43058C10.8813 2.53003 11.3306 2.68242 11.7596 2.88775C11.9654 2.97664 12.0944 3.12714 12.1466 3.33925C12.1987 3.55136 12.1622 3.75475 12.0371 3.94942C11.912 4.15042 11.7347 4.28014 11.5052 4.33858C11.2757 4.39703 11.0518 4.3818 10.8334 4.29292C10.5532 4.1668 10.2571 4.07225 9.94508 4.00925C9.63297 3.94614 9.31847 3.91458 9.00158 3.91458C7.58858 3.91458 6.38747 4.40758 5.39825 5.39358C4.40914 6.37958 3.91458 7.58225 3.91458 9.00158C3.91458 10.4209 4.40914 11.6236 5.39825 12.6096C6.38747 13.5956 7.58858 14.0886 9.00158 14.0886C10.4084 14.0886 11.6079 13.5971 12.6001 12.6143C13.5924 11.6314 14.0886 10.4397 14.0886 9.03925C14.0886 8.96725 14.0874 8.88814 14.0849 8.80192C14.0825 8.71569 14.0733 8.63658 14.0574 8.56458C14.0477 8.32892 14.1034 8.11842 14.2244 7.93308C14.3454 7.74786 14.512 7.62675 14.7241 7.56975C14.9535 7.51897 15.1625 7.55964 15.3509 7.69175C15.5393 7.82386 15.6445 8.00469 15.6668 8.23425C15.6828 8.35692 15.6959 8.48358 15.7063 8.61425C15.7167 8.74492 15.7219 8.87403 15.7219 9.00158C15.7219 9.92958 15.5474 10.8013 15.1984 11.6168C14.8493 12.4322 14.369 13.1457 13.7574 13.7574C13.1457 14.369 12.435 14.8493 11.6251 15.1984C10.8152 15.5474 9.9407 15.7219 9.00158 15.7219ZM8.07325 9.83858L14.0596 3.85225C14.2195 3.69236 14.4066 3.61397 14.6211 3.61708C14.8356 3.62031 15.0197 3.69869 15.1733 3.85225C15.3333 4.01214 15.4133 4.19781 15.4133 4.40925C15.4133 4.62058 15.3333 4.80619 15.1733 4.96608L8.63342 11.4966C8.46731 11.6627 8.27503 11.7458 8.05658 11.7458C7.83825 11.7458 7.64603 11.6627 7.47992 11.4966L5.78775 9.80442C5.62786 9.64453 5.54792 9.45769 5.54792 9.24392C5.54792 9.03014 5.62786 8.84331 5.78775 8.68342C5.94775 8.52353 6.13619 8.44358 6.35308 8.44358C6.56997 8.44358 6.75836 8.52353 6.91825 8.68342L8.07325 9.83858Z" fill="#34C24A"/>
<path d="M16.7236 6.22949C17.1485 5.74182 17.4131 5.11677 17.4131 4.40918C17.4131 3.62746 17.0933 2.94351 16.5869 2.4375C16.0707 1.92156 15.3915 1.62838 14.6504 1.61719C14.2664 1.61162 13.9037 1.68507 13.5723 1.82031C13.3186 1.50803 12.9964 1.25749 12.623 1.08398C12.6194 1.08225 12.6156 1.0809 12.6117 1.07955C12.608 1.07822 12.6042 1.0769 12.6006 1.0752L12.5818 1.06646C12.5718 1.06177 12.5618 1.05706 12.5518 1.05273C12.1434 0.862153 11.7229 0.704846 11.2891 0.585938L10.8262 0.473633C10.2233 0.345835 9.61441 0.281276 9.00195 0.28125C7.81626 0.28125 6.67516 0.50553 5.59961 0.96582C4.55634 1.41247 3.62832 2.035 2.83203 2.83105C2.03813 3.6251 1.415 4.54851 0.967773 5.58594C0.50418 6.66175 0.28125 7.80858 0.28125 9.00195C0.281297 10.1874 0.505637 11.3289 0.96582 12.4043C1.41253 13.4476 2.03586 14.3756 2.83203 15.1719C3.62835 15.968 4.55629 16.5904 5.59961 17.0371C6.67518 17.4974 7.81622 17.7217 9.00195 17.7217C10.1952 17.7216 11.3413 17.4987 12.417 17.0352C13.4545 16.5879 14.3778 15.9658 15.1719 15.1719C15.968 14.3756 16.5904 13.4466 17.0371 12.4033C17.4973 11.3279 17.7216 10.1875 17.7217 9.00195C17.7217 8.91096 17.7205 8.81955 17.7168 8.72852L17.7002 8.45508C17.6874 8.29318 17.669 8.13325 17.6484 7.97559C17.5659 7.2882 17.2425 6.67691 16.7236 6.22949ZM9.00195 2.28125L9.35449 2.29102C9.70718 2.30969 10.06 2.356 10.4121 2.43066C10.8815 2.53011 11.3309 2.68241 11.7598 2.8877C11.9653 2.97654 12.0942 3.127 12.1465 3.33887C12.1986 3.55092 12.1621 3.7546 12.0371 3.94922C11.912 4.15022 11.7343 4.28042 11.5049 4.33887C11.2755 4.39719 11.0512 4.3818 10.833 4.29297C10.5529 4.16695 10.2571 4.07176 9.94531 4.00879C9.71139 3.96149 9.47587 3.93275 9.23926 3.9209L9.00195 3.91504C7.589 3.91504 6.38764 4.40763 5.39844 5.39355C4.40933 6.37955 3.91504 7.58262 3.91504 9.00195C3.91513 10.4211 4.40942 11.6235 5.39844 12.6094C6.38766 13.5954 7.58895 14.0889 9.00195 14.0889C10.4085 14.0888 11.6075 13.5969 12.5996 12.6143C13.5298 11.6929 14.0248 10.5881 14.083 9.2998L14.0889 9.03906C14.0889 8.96711 14.0874 8.88791 14.085 8.80176C14.0825 8.7156 14.0735 8.63641 14.0576 8.56445C14.048 8.32884 14.1036 8.11792 14.2246 7.93262C14.3455 7.74772 14.5118 7.62633 14.7236 7.56934C14.9529 7.51859 15.1622 7.55951 15.3506 7.69141C15.5389 7.82352 15.6448 8.00482 15.667 8.23438C15.683 8.35699 15.6957 8.48365 15.7061 8.61426C15.7165 8.74492 15.7217 8.8744 15.7217 9.00195L15.7207 9.03906C15.7161 9.95306 15.5425 10.8127 15.1982 11.6172C14.8491 12.4325 14.3693 13.1463 13.7578 13.7578C13.1461 14.3694 12.4349 14.8491 11.625 15.1982C10.8152 15.5472 9.94092 15.7216 9.00195 15.7217C8.07403 15.7217 7.20211 15.5472 6.38672 15.1982C5.57144 14.8492 4.85768 14.3692 4.24609 13.7578C3.63462 13.1462 3.15379 12.4325 2.80469 11.6172C2.49928 10.9036 2.32721 10.1465 2.28906 9.34668L2.28125 9.00195C2.28125 8.06284 2.45569 7.18782 2.80469 6.37793C3.15379 5.56809 3.63457 4.85773 4.24609 4.24609C4.85776 3.63454 5.57127 3.1538 6.38672 2.80469C7.20208 2.45577 8.07406 2.28125 9.00195 2.28125ZM15.2783 3.97656C15.3684 4.10619 15.4131 4.25052 15.4131 4.40918C15.4131 4.62051 15.3329 4.80593 15.1729 4.96582L8.63379 11.4971C8.46771 11.6631 8.27504 11.7461 8.05664 11.7461C7.83832 11.7461 7.6456 11.6632 7.47949 11.4971L5.78809 9.80469C5.62825 9.64485 5.54791 9.45782 5.54785 9.24414C5.54785 9.03036 5.6282 8.84348 5.78809 8.68359C5.94807 8.52376 6.13666 8.44336 6.35352 8.44336C6.56799 8.44346 6.75437 8.52221 6.91309 8.67871L8.07324 9.83887L14.0596 3.85254C14.2195 3.69265 14.4066 3.61408 14.6211 3.61719C14.8356 3.62041 15.0193 3.69902 15.1729 3.85254L15.2783 3.97656Z" fill="white"/>
</svg>
