<svg xmlns="http://www.w3.org/2000/svg" width="24" height="24" viewBox="0 0 24 24" fill="none">
  <mask id="mask0_3418_163490" style="mask-type:alpha" maskUnits="userSpaceOnUse" x="0" y="0" width="24" height="24">
    <rect width="24" height="24" fill="#D9D9D9"/>
  </mask>
  <g mask="url(#mask0_3418_163490)">
    <path d="M3.79687 19.9284V11.4006C3.24687 11.4006 2.77604 11.2048 2.38438 10.8131C1.99271 10.4215 1.79688 9.95063 1.79688 9.40063V7.13763C1.79688 6.50796 2.01862 5.97137 2.46213 5.52787C2.90562 5.08437 3.44221 4.86263 4.07187 4.86263H7.09837C7.02304 4.71263 6.97288 4.55554 6.94788 4.39138C6.92288 4.22738 6.91038 4.05512 6.91038 3.87462C6.91038 3.01729 7.21079 2.29004 7.81163 1.69288C8.41246 1.09554 9.14196 0.796875 10.0001 0.796875C10.3795 0.796875 10.7368 0.862709 11.0721 0.994376C11.4075 1.12604 11.7168 1.31296 12.0001 1.55513C12.2835 1.30029 12.5938 1.11021 12.9311 0.984875C13.2685 0.859542 13.6268 0.796875 14.0061 0.796875C14.8626 0.796875 15.5907 1.09554 16.1904 1.69288C16.79 2.29004 17.0899 3.01729 17.0899 3.87462C17.0899 4.05579 17.0742 4.22454 17.0429 4.38087C17.0115 4.53737 16.9645 4.69796 16.9019 4.86263H19.9284C20.558 4.86263 21.0946 5.08437 21.5381 5.52787C21.9816 5.97137 22.2034 6.50796 22.2034 7.13763V9.40063C22.2034 9.95063 22.0075 10.4215 21.6159 10.8131C21.2242 11.2048 20.7534 11.4006 20.2034 11.4006V19.9284C20.2034 20.558 19.9816 21.0946 19.5381 21.5381C19.0946 21.9816 18.558 22.2034 17.9284 22.2034H6.07188C5.44221 22.2034 4.90562 21.9816 4.46212 21.5381C4.01862 21.0946 3.79687 20.558 3.79687 19.9284ZM14.0061 2.88062C13.7228 2.88062 13.4853 2.97554 13.2936 3.16537C13.102 3.35537 13.0061 3.59079 13.0061 3.87162C13.0061 4.15246 13.102 4.38779 13.2936 4.57762C13.4853 4.76762 13.7228 4.86263 14.0061 4.86263C14.2895 4.86263 14.527 4.76762 14.7186 4.57762C14.9103 4.38779 15.0061 4.15246 15.0061 3.87162C15.0061 3.59079 14.9103 3.35537 14.7186 3.16537C14.527 2.97554 14.2895 2.88062 14.0061 2.88062ZM9.00013 3.87162C9.00013 4.15246 9.09596 4.38779 9.28763 4.57762C9.47929 4.76762 9.71679 4.86263 10.0001 4.86263C10.2835 4.86263 10.521 4.76762 10.7126 4.57762C10.9043 4.38779 11.0001 4.15246 11.0001 3.87162C11.0001 3.59079 10.9043 3.35537 10.7126 3.16537C10.521 2.97554 10.2835 2.88062 10.0001 2.88062C9.71679 2.88062 9.47929 2.97554 9.28763 3.16537C9.09596 3.35537 9.00013 3.59079 9.00013 3.87162ZM4.07187 7.13763V9.12563H10.9224V7.13763H4.07187ZM10.9224 19.9344V11.4006H6.07188V19.9344H10.9224ZM13.0779 19.9344H17.9284V11.4006H13.0779V19.9344ZM19.9344 9.12563V7.13763H13.0779V9.12563H19.9344Z" fill="url(#paint0_linear_3418_163490)"/>
  </g>
  <defs>
    <linearGradient id="paint0_linear_3418_163490" x1="22" y1="1.00012" x2="3" y2="21.5001" gradientUnits="userSpaceOnUse">
      <stop stop-color="#7AE38A"/>
      <stop offset="1" stop-color="#34C24A"/>
    </linearGradient>
  </defs>
</svg>