<svg width="16" height="16" viewBox="0 0 16 16" fill="none" xmlns="http://www.w3.org/2000/svg">
<g clip-path="url(#clip0_1840_1294)">
<mask id="mask0_1840_1294" style="mask-type:alpha" maskUnits="userSpaceOnUse" x="0" y="0" width="16" height="16">
<rect width="16" height="16" fill="#D9D9D9"/>
</mask>
<g mask="url(#mask0_1840_1294)">
<path d="M11.5829 8.4002L9.59961 6.41686L10.4496 5.56686L11.5829 6.7002L14.1329 4.16686L14.9829 5.0002L11.5829 8.4002ZM6.39961 8.0002C5.73294 8.0002 5.16628 7.76686 4.69961 7.3002C4.23294 6.83353 3.99961 6.26686 3.99961 5.6002C3.99961 4.93353 4.23294 4.36686 4.69961 3.9002C5.16628 3.43353 5.73294 3.2002 6.39961 3.2002C7.06628 3.2002 7.63294 3.43353 8.09961 3.9002C8.56628 4.36686 8.79961 4.93353 8.79961 5.6002C8.79961 6.26686 8.56628 6.83353 8.09961 7.3002C7.63294 7.76686 7.06628 8.0002 6.39961 8.0002ZM1.59961 12.8002V11.2669C1.59961 10.9804 1.66905 10.7171 1.80794 10.477C1.94683 10.2369 2.1385 10.0446 2.38294 9.9002C2.99405 9.54464 3.6385 9.27242 4.31628 9.08353C4.99405 8.89464 5.6885 8.8002 6.39961 8.8002C7.11072 8.8002 7.80517 8.89464 8.48294 9.08353C9.16072 9.27242 9.80517 9.54464 10.4163 9.9002C10.6607 10.0446 10.8524 10.2369 10.9913 10.477C11.1302 10.7171 11.1996 10.9804 11.1996 11.2669V12.8002H1.59961ZM2.79961 11.6002H9.99961V11.2669C9.99961 11.195 9.98278 11.1296 9.94911 11.0709C9.91555 11.012 9.87128 10.9662 9.81628 10.9335C9.29405 10.6335 8.74405 10.403 8.16628 10.2419C7.5885 10.0808 6.99961 10.0002 6.39961 10.0002C5.79961 10.0002 5.21072 10.0808 4.63294 10.2419C4.05517 10.403 3.50517 10.6335 2.98294 10.9335C2.92794 10.9662 2.88361 11.012 2.84994 11.0709C2.81639 11.1296 2.79961 11.195 2.79961 11.2669V11.6002ZM6.40311 6.8002C6.73411 6.8002 7.01628 6.68236 7.24961 6.4467C7.48294 6.21103 7.59961 5.9277 7.59961 5.59669C7.59961 5.26569 7.48178 4.98353 7.24611 4.7502C7.01044 4.51686 6.72711 4.4002 6.39611 4.4002C6.06511 4.4002 5.78294 4.51803 5.54961 4.7537C5.31628 4.98936 5.19961 5.2727 5.19961 5.6037C5.19961 5.9347 5.31744 6.21686 5.55311 6.4502C5.78878 6.68353 6.07211 6.8002 6.40311 6.8002Z" fill="white"/>
</g>
</g>
<defs>
<clipPath id="clip0_1840_1294">
<rect width="16" height="16" fill="white"/>
</clipPath>
</defs>
</svg>
