<svg width="20" height="20" viewBox="0 0 20 20" fill="none" xmlns="http://www.w3.org/2000/svg">
<g clip-path="url(#clip0_2831_463366)">
<mask id="mask0_2831_463366" style="mask-type:alpha" maskUnits="userSpaceOnUse" x="0" y="0" width="20" height="20">
<rect width="20" height="20" fill="#D9D9D9"/>
</mask>
<g mask="url(#mask0_2831_463366)">
<path d="M3.33008 16.4397V10.3332C2.91341 10.3332 2.55924 10.1861 2.26758 9.89195C1.97591 9.59765 1.83008 9.2439 1.83008 8.8307V7.10883C1.83008 6.62925 1.99855 6.22202 2.33549 5.88716C2.67244 5.5523 3.08036 5.38487 3.55924 5.38487H5.74799C5.68522 5.23209 5.63647 5.0739 5.60175 4.91029C5.56702 4.74667 5.54966 4.57487 5.54966 4.39487C5.54966 3.68043 5.80001 3.07438 6.3007 2.57675C6.8014 2.07897 7.40931 1.83008 8.12445 1.83008C8.48626 1.83008 8.82668 1.9023 9.1457 2.04675C9.46487 2.19119 9.74945 2.39209 9.99945 2.64945C10.2356 2.39543 10.5185 2.19536 10.8482 2.04925C11.1779 1.90313 11.5217 1.83008 11.8795 1.83008C12.5932 1.83008 13.1999 2.07897 13.6997 2.57675C14.1994 3.07438 14.4492 3.68043 14.4492 4.39487C14.4492 4.55973 14.4258 4.72466 14.3788 4.88966C14.3319 5.0548 14.2892 5.21987 14.2509 5.38487H16.4397C16.9186 5.38487 17.3265 5.55362 17.6634 5.89112C18.0004 6.22848 18.1688 6.63695 18.1688 7.11654V8.83841C18.1688 9.25161 18.022 9.60404 17.7282 9.8957C17.4345 10.1874 17.0813 10.3332 16.6688 10.3332V16.4397C16.6688 16.9186 16.5004 17.3265 16.1634 17.6634C15.8265 18.0004 15.4186 18.1688 14.9397 18.1688H5.05924C4.58036 18.1688 4.17244 18.0004 3.83549 17.6634C3.49855 17.3265 3.33008 16.9186 3.33008 16.4397ZM11.8795 3.39987C11.5961 3.39987 11.3586 3.49494 11.167 3.68508C10.9753 3.87536 10.8795 4.11112 10.8795 4.39237C10.8795 4.67362 10.9753 4.90931 11.167 5.09945C11.3586 5.28973 11.5961 5.38487 11.8795 5.38487C12.1628 5.38487 12.4003 5.28973 12.592 5.09945C12.7836 4.90931 12.8795 4.67362 12.8795 4.39237C12.8795 4.11112 12.7836 3.87536 12.592 3.68508C12.4003 3.49494 12.1628 3.39987 11.8795 3.39987ZM7.12445 4.39237C7.12445 4.67362 7.22029 4.90931 7.41195 5.09945C7.60362 5.28973 7.84112 5.38487 8.12445 5.38487C8.40779 5.38487 8.64529 5.28973 8.83695 5.09945C9.02862 4.90931 9.12445 4.67362 9.12445 4.39237C9.12445 4.11112 9.02862 3.87536 8.83695 3.68508C8.64529 3.49494 8.40779 3.39987 8.12445 3.39987C7.84112 3.39987 7.60362 3.49494 7.41195 3.68508C7.22029 3.87536 7.12445 4.11112 7.12445 4.39237ZM3.55924 7.11404V8.60404H9.18466V7.11404H3.55924ZM9.18466 16.4447V10.3332H5.05924V16.4447H9.18466ZM10.8142 16.4447H14.9397V10.3332H10.8142V16.4447ZM16.4447 8.60404V7.11404H10.8142V8.60404H16.4447Z" fill="#4B4B4E"/>
<path d="M3.33008 16.4397V10.3332C2.91341 10.3332 2.55924 10.1861 2.26758 9.89195C1.97591 9.59765 1.83008 9.2439 1.83008 8.8307V7.10883C1.83008 6.62925 1.99855 6.22202 2.33549 5.88716C2.67244 5.5523 3.08036 5.38487 3.55924 5.38487H5.74799C5.68522 5.23209 5.63647 5.0739 5.60175 4.91029C5.56702 4.74667 5.54966 4.57487 5.54966 4.39487C5.54966 3.68043 5.80001 3.07438 6.3007 2.57675C6.8014 2.07897 7.40931 1.83008 8.12445 1.83008C8.48626 1.83008 8.82668 1.9023 9.1457 2.04675C9.46487 2.19119 9.74945 2.39209 9.99945 2.64945C10.2356 2.39543 10.5185 2.19536 10.8482 2.04925C11.1779 1.90313 11.5217 1.83008 11.8795 1.83008C12.5932 1.83008 13.1999 2.07897 13.6997 2.57675C14.1994 3.07438 14.4492 3.68043 14.4492 4.39487C14.4492 4.55973 14.4258 4.72466 14.3788 4.88966C14.3319 5.0548 14.2892 5.21987 14.2509 5.38487H16.4397C16.9186 5.38487 17.3265 5.55362 17.6634 5.89112C18.0004 6.22848 18.1688 6.63695 18.1688 7.11654V8.83841C18.1688 9.25161 18.022 9.60404 17.7282 9.8957C17.4345 10.1874 17.0813 10.3332 16.6688 10.3332V16.4397C16.6688 16.9186 16.5004 17.3265 16.1634 17.6634C15.8265 18.0004 15.4186 18.1688 14.9397 18.1688H5.05924C4.58036 18.1688 4.17244 18.0004 3.83549 17.6634C3.49855 17.3265 3.33008 16.9186 3.33008 16.4397ZM11.8795 3.39987C11.5961 3.39987 11.3586 3.49494 11.167 3.68508C10.9753 3.87536 10.8795 4.11112 10.8795 4.39237C10.8795 4.67362 10.9753 4.90931 11.167 5.09945C11.3586 5.28973 11.5961 5.38487 11.8795 5.38487C12.1628 5.38487 12.4003 5.28973 12.592 5.09945C12.7836 4.90931 12.8795 4.67362 12.8795 4.39237C12.8795 4.11112 12.7836 3.87536 12.592 3.68508C12.4003 3.49494 12.1628 3.39987 11.8795 3.39987ZM7.12445 4.39237C7.12445 4.67362 7.22029 4.90931 7.41195 5.09945C7.60362 5.28973 7.84112 5.38487 8.12445 5.38487C8.40779 5.38487 8.64529 5.28973 8.83695 5.09945C9.02862 4.90931 9.12445 4.67362 9.12445 4.39237C9.12445 4.11112 9.02862 3.87536 8.83695 3.68508C8.64529 3.49494 8.40779 3.39987 8.12445 3.39987C7.84112 3.39987 7.60362 3.49494 7.41195 3.68508C7.22029 3.87536 7.12445 4.11112 7.12445 4.39237ZM3.55924 7.11404V8.60404H9.18466V7.11404H3.55924ZM9.18466 16.4447V10.3332H5.05924V16.4447H9.18466ZM10.8142 16.4447H14.9397V10.3332H10.8142V16.4447ZM16.4447 8.60404V7.11404H10.8142V8.60404H16.4447Z" fill="url(#paint0_linear_2831_463366)"/>
</g>
</g>
<defs>
<linearGradient id="paint0_linear_2831_463366" x1="18.006" y1="1.98521" x2="3.57294" y2="18.3208" gradientUnits="userSpaceOnUse">
<stop stop-color="#69D5D4"/>
<stop offset="1" stop-color="#1CB0AE"/>
</linearGradient>
<clipPath id="clip0_2831_463366">
<rect width="20" height="20" fill="white"/>
</clipPath>
</defs>
</svg>
