<svg width="16" height="16" viewBox="0 0 16 16" fill="none" xmlns="http://www.w3.org/2000/svg">
<g clip-path="url(#clip0_3140_18934)">
<mask id="mask0_3140_18934" style="mask-type:alpha" maskUnits="userSpaceOnUse" x="0" y="0" width="16" height="16">
<rect width="16" height="16" fill="#D9D9D9"/>
</mask>
<g mask="url(#mask0_3140_18934)">
<path d="M7.99613 11.341C8.20513 11.341 8.38152 11.2699 8.5253 11.1278C8.66908 10.9857 8.74096 10.8096 8.74096 10.5996V7.94096C8.74096 7.73096 8.67024 7.55491 8.5288 7.4128C8.38735 7.27069 8.21213 7.19963 8.00313 7.19963C7.79413 7.19963 7.61774 7.27069 7.47396 7.4128C7.33019 7.55491 7.2583 7.73096 7.2583 7.94096V10.5996C7.2583 10.8096 7.32902 10.9857 7.47046 11.1278C7.61191 11.2699 7.78713 11.341 7.99613 11.341ZM7.99613 6.18796C8.21846 6.18796 8.40602 6.1128 8.5588 5.96246C8.71157 5.81202 8.78796 5.62558 8.78796 5.40313C8.78796 5.1808 8.7128 4.99324 8.56246 4.84046C8.41202 4.68769 8.22557 4.6113 8.00313 4.6113C7.7808 4.6113 7.59324 4.68646 7.44046 4.8368C7.28769 4.98724 7.2113 5.17369 7.2113 5.39613C7.2113 5.61846 7.28646 5.80602 7.4368 5.9588C7.58724 6.11157 7.77369 6.18796 7.99613 6.18796ZM8.0043 14.72C7.07319 14.72 6.19991 14.5452 5.38446 14.1956C4.56913 13.8461 3.85591 13.3657 3.2448 12.7545C2.63357 12.1434 2.15319 11.4304 1.80363 10.6155C1.45407 9.80057 1.2793 8.92607 1.2793 7.99196C1.2793 7.05796 1.45407 6.18602 1.80363 5.37613C2.15319 4.56635 2.63357 3.85591 3.2448 3.2448C3.85591 2.63357 4.56891 2.15319 5.3838 1.80363C6.19869 1.45407 7.07319 1.2793 8.0073 1.2793C8.9413 1.2793 9.81324 1.45407 10.6231 1.80363C11.4329 2.15319 12.1434 2.63357 12.7545 3.2448C13.3657 3.85591 13.8461 4.56763 14.1956 5.37996C14.5452 6.1923 14.72 7.06396 14.72 7.99496C14.72 8.92607 14.5452 9.79935 14.1956 10.6148C13.8461 11.4301 13.3657 12.1434 12.7545 12.7545C12.1434 13.3657 11.4316 13.8461 10.6193 14.1956C9.80696 14.5452 8.9353 14.72 8.0043 14.72ZM7.99963 13.0866C9.41896 13.0866 10.6216 12.5936 11.6076 11.6076C12.5936 10.6216 13.0866 9.41896 13.0866 7.99963C13.0866 6.5803 12.5936 5.37763 11.6076 4.39163C10.6216 3.40563 9.41896 2.91263 7.99963 2.91263C6.5803 2.91263 5.37763 3.40563 4.39163 4.39163C3.40563 5.37763 2.91263 6.5803 2.91263 7.99963C2.91263 9.41896 3.40563 10.6216 4.39163 11.6076C5.37763 12.5936 6.5803 13.0866 7.99963 13.0866Z" fill="black"/>
</g>
</g>
<defs>
<clipPath id="clip0_3140_18934">
<rect width="16" height="16" fill="white"/>
</clipPath>
</defs>
</svg>
