<svg width="16" height="16" viewBox="0 0 16 16" fill="none" xmlns="http://www.w3.org/2000/svg">
<mask id="mask0_2959_24523" style="mask-type:alpha" maskUnits="userSpaceOnUse" x="0" y="0" width="16" height="16">
<rect width="16" height="16" fill="#D9D9D9"/>
</mask>
<g mask="url(#mask0_2959_24523)">
<path d="M7.99806 11.2016C8.16706 11.2016 8.3099 11.1441 8.42656 11.0291C8.54323 10.9141 8.60156 10.7716 8.60156 10.6016V7.80156C8.60156 7.63156 8.5444 7.48906 8.43006 7.37406C8.31573 7.25906 8.17406 7.20156 8.00506 7.20156C7.83606 7.20156 7.69323 7.25906 7.57656 7.37406C7.4599 7.48906 7.40156 7.63156 7.40156 7.80156V10.6016C7.40156 10.7716 7.45873 10.9141 7.57306 11.0291C7.6874 11.1441 7.82906 11.2016 7.99806 11.2016ZM7.99806 6.00156C8.16706 6.00156 8.3099 5.9444 8.42656 5.83006C8.54323 5.71573 8.60156 5.57406 8.60156 5.40506C8.60156 5.23606 8.5444 5.09323 8.43006 4.97656C8.31573 4.8599 8.17406 4.80156 8.00506 4.80156C7.83606 4.80156 7.69323 4.85873 7.57656 4.97306C7.4599 5.0874 7.40156 5.22906 7.40156 5.39806C7.40156 5.56706 7.45873 5.7099 7.57306 5.82656C7.6874 5.94323 7.82906 6.00156 7.99806 6.00156ZM8.00623 14.4016C7.12534 14.4016 6.29601 14.2349 5.51823 13.9016C4.74045 13.5682 4.0599 13.1099 3.47656 12.5266C2.89323 11.9432 2.4349 11.2629 2.10156 10.4856C1.76823 9.70823 1.60156 8.87767 1.60156 7.9939C1.60156 7.11012 1.76823 6.28212 2.10156 5.5099C2.4349 4.73767 2.89323 4.0599 3.47656 3.47656C4.0599 2.89323 4.74023 2.4349 5.51756 2.10156C6.2949 1.76823 7.12545 1.60156 8.00923 1.60156C8.89301 1.60156 9.72101 1.76823 10.4932 2.10156C11.2655 2.4349 11.9432 2.89323 12.5266 3.47656C13.1099 4.0599 13.5682 4.7389 13.9016 5.51356C14.2349 6.28834 14.4016 7.11612 14.4016 7.9969C14.4016 8.87779 14.2349 9.70712 13.9016 10.4849C13.5682 11.2627 13.1099 11.9432 12.5266 12.5266C11.9432 13.1099 11.2642 13.5682 10.4896 13.9016C9.71479 14.2349 8.88701 14.4016 8.00623 14.4016ZM8.00156 13.2016C9.44601 13.2016 10.6738 12.696 11.6849 11.6849C12.696 10.6738 13.2016 9.44601 13.2016 8.00156C13.2016 6.55712 12.696 5.32934 11.6849 4.31823C10.6738 3.30712 9.44601 2.80156 8.00156 2.80156C6.55712 2.80156 5.32934 3.30712 4.31823 4.31823C3.30712 5.32934 2.80156 6.55712 2.80156 8.00156C2.80156 9.44601 3.30712 10.6738 4.31823 11.6849C5.32934 12.696 6.55712 13.2016 8.00156 13.2016Z" fill="#75757A"/>
</g>
</svg>
