<svg width="16" height="16" viewBox="0 0 16 16" fill="none" xmlns="http://www.w3.org/2000/svg">
<mask id="mask0_3090_7277" style="mask-type:alpha" maskUnits="userSpaceOnUse" x="0" y="0" width="16" height="16">
<rect width="16" height="16" fill="#D9D9D9"/>
</mask>
<g mask="url(#mask0_3090_7277)">
<path d="M4.61576 7.98092C4.61576 8.1017 4.62253 8.21931 4.63609 8.33376C4.64964 8.44831 4.6612 8.56042 4.67076 8.67009C4.71676 8.88209 4.70603 9.0957 4.63859 9.31092C4.57114 9.52614 4.43453 9.68353 4.22876 9.78309C4.02931 9.87631 3.82476 9.88209 3.61509 9.80042C3.40542 9.71887 3.26581 9.57831 3.19626 9.37875C3.12814 9.15842 3.07548 8.93259 3.03826 8.70125C3.00103 8.46981 2.98242 8.2297 2.98242 7.98092C2.98242 6.59881 3.47037 5.41198 4.44626 4.42042C5.42203 3.42887 6.60826 2.94975 8.00492 2.98309H8.01426L7.66942 2.63809C7.52831 2.49709 7.45931 2.33975 7.46242 2.16609C7.46564 1.99242 7.53776 1.83503 7.67876 1.69392C7.81987 1.55292 7.97725 1.48242 8.15092 1.48242C8.32459 1.48242 8.48198 1.55292 8.62309 1.69392L10.1519 3.22292C10.3181 3.38914 10.4013 3.58142 10.4013 3.79975C10.4013 4.01809 10.3181 4.21037 10.1519 4.37659L8.62309 5.90559C8.48198 6.04659 8.32737 6.11431 8.15926 6.10875C7.99114 6.1032 7.83653 6.02992 7.69542 5.88892C7.55442 5.74781 7.48392 5.58887 7.48392 5.41209C7.48392 5.23531 7.55442 5.07637 7.69542 4.93525L8.01426 4.61642H8.03309C7.07031 4.5942 6.26009 4.91664 5.60242 5.58375C4.94464 6.25098 4.61576 7.05003 4.61576 7.98092ZM11.3824 8.01859C11.3824 7.89781 11.3756 7.7802 11.3621 7.66575C11.3485 7.5512 11.337 7.43909 11.3274 7.32942C11.2814 7.10631 11.2921 6.88992 11.3596 6.68025C11.427 6.47059 11.5636 6.31042 11.7694 6.19975C11.9689 6.09542 12.1691 6.0797 12.3701 6.15259C12.5711 6.22559 12.7064 6.3587 12.7759 6.55192C12.8503 6.78959 12.9088 7.02692 12.9516 7.26392C12.9944 7.50081 13.0158 7.75237 13.0158 8.01859C13.0158 9.38959 12.5278 10.5752 11.5519 11.5754C10.5761 12.5758 9.38992 13.0593 7.99326 13.0259H7.98392L8.31942 13.3614C8.46042 13.5024 8.53092 13.6598 8.53092 13.8334C8.53092 14.0071 8.46042 14.1645 8.31942 14.3056C8.17831 14.4466 8.01937 14.5171 7.84259 14.5171C7.66581 14.5171 7.50687 14.4466 7.36576 14.3056L5.83676 12.7766C5.67053 12.6104 5.58903 12.4196 5.59226 12.2044C5.59537 11.9892 5.67687 11.7985 5.83676 11.6324L7.37509 10.1034C7.5162 9.96231 7.67514 9.8902 7.85192 9.88709C8.02881 9.88398 8.18776 9.95292 8.32876 10.0939C8.46987 10.235 8.54042 10.394 8.54042 10.5708C8.54042 10.7475 8.46987 10.9065 8.32876 11.0476L7.98392 11.3924H7.96509C8.92787 11.4146 9.73809 11.0906 10.3958 10.4204C11.0535 9.75009 11.3824 8.94948 11.3824 8.01859Z" fill="white"/>
</g>
</svg>
