<svg width="16" height="18" viewBox="0 0 16 18" fill="none" xmlns="http://www.w3.org/2000/svg">
<path fill-rule="evenodd" clip-rule="evenodd" d="M13.1191 7.83008C13.1191 7.38086 12.9595 6.99567 12.6396 6.67578C12.3597 6.39606 12.0302 6.23902 11.6514 6.2041L11.4863 6.19629H11.3408V4.87012C11.3408 3.993 11.0563 3.23833 10.4873 2.60742L10.3691 2.4834C9.72183 1.82802 8.93322 1.5 8.00293 1.5C7.07266 1.50003 6.28267 1.82799 5.63281 2.4834L5.51465 2.60742C4.94338 3.23834 4.6582 3.99297 4.6582 4.87012V6.19629H4.5127L4.34668 6.2041C3.96793 6.23911 3.63825 6.39603 3.3584 6.67578C3.03851 6.99567 2.87891 7.38086 2.87891 7.83008V14.0039L2.88672 14.1689C2.9215 14.5479 3.07797 14.8774 3.35645 15.1572C3.63479 15.437 3.96316 15.5948 4.3418 15.6299L4.50781 15.6367H11.4854C11.9347 15.6367 12.3196 15.4771 12.6396 15.1572C12.9197 14.8774 13.0773 14.5479 13.1123 14.1689L13.1191 14.0039V7.83008ZM14.6191 14.0039C14.6191 14.854 14.2992 15.619 13.7002 16.2178C13.1011 16.8166 12.3355 17.1367 11.4854 17.1367H4.50781C3.76392 17.1367 3.08443 16.8918 2.52539 16.4277L2.29297 16.2148C1.69656 15.6154 1.37897 14.8514 1.37891 14.0039V7.83008C1.37891 6.97989 1.69889 6.2142 2.29785 5.61523C2.55584 5.35733 2.84505 5.15119 3.1582 5V4.87012C3.1582 3.54498 3.63473 2.36738 4.56738 1.42676C5.5014 0.484778 6.67621 3.49745e-05 8.00293 0C9.32969 0 10.5043 0.484985 11.4365 1.42871C12.3659 2.36976 12.8408 3.54685 12.8408 4.87012V5.00098C13.1536 5.15212 13.4424 5.35758 13.7002 5.61523C14.2992 6.2142 14.6191 6.97989 14.6191 7.83008V14.0039Z" fill="white"/>
<path d="M8.17578 3.1416C8.57945 3.17854 8.9258 3.3442 9.21387 3.63965C9.543 3.97718 9.70703 4.38785 9.70703 4.87012V6.19629H6.29102V4.87012C6.29102 4.44808 6.4169 4.08072 6.66895 3.76953L6.78516 3.63965C7.11431 3.30212 7.51896 3.13384 7.99902 3.13379L8.17578 3.1416Z" fill="white"/>
<path fill-rule="evenodd" clip-rule="evenodd" d="M11.4863 7.83008V14.0039H4.5127V7.83008H11.4863ZM7.14941 10.0703C7.38273 9.8346 7.66514 9.7168 7.99609 9.7168C8.32687 9.71688 8.61015 9.83325 8.8457 10.0664C9.08135 10.2997 9.1992 10.5821 9.19922 10.9131C9.19922 11.2439 9.08266 11.5271 8.84961 11.7627L8.75977 11.8457C8.54489 12.0263 8.29263 12.1162 8.00293 12.1162L7.88086 12.1113C7.60165 12.0858 7.35856 11.9708 7.15234 11.7666C6.91683 11.5333 6.79883 11.2507 6.79883 10.9199C6.79891 10.6305 6.88884 10.3777 7.06738 10.1611L7.14941 10.0703Z" fill="white"/>
<path d="M4.50757 15.637C4.05824 15.637 3.67446 15.4771 3.35624 15.1572C3.03802 14.8374 2.87891 14.4529 2.87891 14.0037V7.82983C2.87891 7.38061 3.03885 6.99606 3.35874 6.67617C3.67863 6.35639 4.06313 6.1965 4.51224 6.1965H4.65791V4.86967C4.65791 3.93411 4.98285 3.13861 5.63274 2.48317C6.28263 1.82772 7.07274 1.5 8.00307 1.5C8.93341 1.5 9.72224 1.82772 10.3696 2.48317C11.0169 3.13861 11.3406 3.93411 11.3406 4.86967V6.1965H11.4862C11.9354 6.1965 12.3199 6.35639 12.6397 6.67617C12.9596 6.99606 13.1196 7.38061 13.1196 7.82983V14.0037C13.1196 14.4529 12.9596 14.8374 12.6396 15.1572C12.3196 15.4771 11.9349 15.637 11.4856 15.637H4.50757ZM4.51224 14.0037H11.4862V7.82983H4.51224V14.0037ZM8.00274 12.1167C8.33374 12.1167 8.61591 11.9988 8.84924 11.7632C9.08257 11.5275 9.19924 11.2442 9.19924 10.9132C9.19924 10.5822 9.08141 10.3 8.84574 10.0667C8.61007 9.83333 8.32674 9.71667 7.99574 9.71667C7.66474 9.71667 7.38257 9.83456 7.14924 10.0703C6.91591 10.306 6.79924 10.5893 6.79924 10.9203C6.79924 11.2512 6.91707 11.5333 7.15274 11.7667C7.38841 12 7.67174 12.1167 8.00274 12.1167ZM6.29124 6.1965H9.70724V4.86967C9.70724 4.38733 9.54263 3.97739 9.21341 3.63983C8.88418 3.30217 8.47946 3.13333 7.99924 3.13333C7.51902 3.13333 7.1143 3.30217 6.78507 3.63983C6.45585 3.97739 6.29124 4.38733 6.29124 4.86967V6.1965Z" fill="#75757A"/>
</svg>
