<svg width="16" height="16" viewBox="0 0 16 16" fill="none" xmlns="http://www.w3.org/2000/svg">
<g clip-path="url(#clip0_3294_84376)">
<mask id="mask0_3294_84376" style="mask-type:alpha" maskUnits="userSpaceOnUse" x="0" y="0" width="16" height="16">
<rect width="16" height="16" fill="#D9D9D9"/>
</mask>
<g mask="url(#mask0_3294_84376)">
<path d="M3.92561 12.2175L8.55377 10.566L5.57711 7.58915L3.92561 12.2175ZM15.4364 4.97248C15.3413 5.06771 15.2375 5.11532 15.1249 5.11532C15.0123 5.11532 14.9084 5.06771 14.8133 4.97248L14.5583 4.71748C14.4049 4.56193 14.2133 4.48415 13.9833 4.48415C13.7533 4.48415 13.5616 4.56193 13.4083 4.71748L10.2509 7.89132C10.1503 7.98798 10.0328 8.03476 9.89861 8.03165C9.76438 8.02843 9.649 7.97854 9.55244 7.88198C9.45577 7.78532 9.40744 7.66832 9.40744 7.53098C9.40744 7.39365 9.45577 7.27465 9.55244 7.17398L12.7003 4.00948C13.0497 3.66071 13.4736 3.48632 13.9718 3.48632C14.47 3.48632 14.8991 3.66071 15.2589 4.00948L15.5306 4.28115C15.6147 4.36626 15.6521 4.47076 15.6426 4.59465C15.6332 4.71854 15.5644 4.84448 15.4364 4.97248ZM6.93927 2.38632C7.03372 2.29598 7.14489 2.25082 7.27277 2.25082C7.40077 2.25082 7.50994 2.29598 7.60027 2.38632L7.83644 2.62248C8.17411 2.97715 8.34294 3.40232 8.34294 3.89798C8.34294 4.39354 8.17411 4.82126 7.83644 5.18115L7.58144 5.43632C7.50588 5.50776 7.41039 5.5341 7.29494 5.51532C7.17961 5.49643 7.03911 5.40099 6.87344 5.22898C6.80189 5.15754 6.76611 5.07354 6.76611 4.97698C6.76611 4.88043 6.80189 4.79437 6.87344 4.71882L7.12844 4.46382C7.284 4.31048 7.36177 4.12437 7.36177 3.90548C7.36177 3.68648 7.284 3.50037 7.12844 3.34715L6.87561 3.09432C6.78527 3.00287 6.74322 2.8921 6.74944 2.76198C6.75577 2.63176 6.81905 2.50654 6.93927 2.38632ZM8.98861 1.77898C9.08527 1.68243 9.20383 1.63571 9.34427 1.63882C9.48483 1.64193 9.60538 1.69182 9.70594 1.78848L10.4806 2.56315C10.8405 2.92304 11.0204 3.35048 11.0204 3.84548C11.0204 4.3406 10.8405 4.76287 10.4806 5.11232L8.97627 6.61665C8.87872 6.71332 8.76327 6.76165 8.62994 6.76165C8.49661 6.76165 8.37605 6.71332 8.26827 6.61665C8.16061 6.52009 8.10677 6.39954 8.10677 6.25498C8.10677 6.11043 8.16061 5.98632 8.26827 5.88265L9.76327 4.38765C9.91883 4.23654 9.99661 4.04765 9.99661 3.82098C9.99661 3.59432 9.91883 3.40543 9.76327 3.25432L8.98861 2.49648C8.89205 2.39582 8.84377 2.27521 8.84377 2.13465C8.84377 1.99421 8.89205 1.87565 8.98861 1.77898ZM15.1451 8.93915C15.0486 9.03582 14.93 9.08415 14.7894 9.08415C14.649 9.08415 14.5284 9.03582 14.4278 8.93915L13.6531 8.16448C13.502 8.00893 13.3131 7.93115 13.0864 7.93115C12.8598 7.93115 12.6709 8.00893 12.5198 8.16448L11.5184 9.16598C11.4178 9.26265 11.2972 9.31099 11.1566 9.31099C11.0162 9.31099 10.8976 9.26265 10.8009 9.16598C10.7044 9.06932 10.6577 8.95076 10.6608 8.81032C10.6639 8.66987 10.7138 8.54932 10.8104 8.44865L11.8118 7.44715C12.1717 7.10948 12.6009 6.93787 13.0994 6.93232C13.598 6.92676 14.0217 7.09837 14.3706 7.44715L15.1451 8.22182C15.2418 8.32248 15.2901 8.44304 15.2901 8.58348C15.2901 8.72404 15.2418 8.8426 15.1451 8.93915ZM1.81977 13.2833L4.44944 5.83482C4.51277 5.6686 4.61594 5.53682 4.75894 5.43948C4.90183 5.34215 5.05544 5.29348 5.21977 5.29348C5.32511 5.29348 5.42533 5.31054 5.52044 5.34465C5.61555 5.37865 5.70566 5.43598 5.79077 5.51665L10.6429 10.3522C10.7236 10.4373 10.781 10.5274 10.8151 10.6227C10.8491 10.7178 10.8661 10.8179 10.8661 10.923C10.8661 11.0869 10.8174 11.2389 10.7201 11.379C10.6228 11.5191 10.4911 11.6208 10.3249 11.6842L2.85027 14.3138C2.67772 14.3708 2.51966 14.3778 2.37611 14.3347C2.23255 14.2915 2.10966 14.2189 2.00744 14.1167C1.90533 14.0145 1.83427 13.8917 1.79427 13.7482C1.75427 13.6045 1.76277 13.4495 1.81977 13.2833Z" fill="#116A69"/>
</g>
</g>
<defs>
<clipPath id="clip0_3294_84376">
<rect width="16" height="16" fill="white"/>
</clipPath>
</defs>
</svg>
