<svg width="16" height="16" viewBox="0 0 16 16" fill="none" xmlns="http://www.w3.org/2000/svg">
<mask id="mask0_3257_14290" style="mask-type:alpha" maskUnits="userSpaceOnUse" x="0" y="0" width="16" height="16">
<rect width="16" height="16" fill="#D9D9D9"/>
</mask>
<g mask="url(#mask0_3257_14290)">
<path d="M1.9668 6.38413V2.78813C1.9668 2.5618 2.04619 2.36835 2.20496 2.2078C2.36385 2.04713 2.55646 1.9668 2.7828 1.9668H6.3788C6.60513 1.9668 6.79857 2.04619 6.95913 2.20496C7.1198 2.36385 7.20013 2.55646 7.20013 2.7828V6.3788C7.20013 6.60513 7.12069 6.79857 6.9618 6.95913C6.80302 7.1198 6.61046 7.20013 6.38413 7.20013H2.78813C2.5618 7.20013 2.36835 7.12069 2.2078 6.9618C2.04713 6.80302 1.9668 6.61046 1.9668 6.38413ZM3.60013 5.5668H5.5668V3.60013H3.60013V5.5668ZM1.9668 13.2175V9.62146C1.9668 9.39513 2.04619 9.20169 2.20496 9.04113C2.36385 8.88046 2.55646 8.80013 2.7828 8.80013H6.3788C6.60513 8.80013 6.79857 8.87957 6.95913 9.03846C7.1198 9.19724 7.20013 9.3898 7.20013 9.61613V13.2121C7.20013 13.4385 7.12069 13.6319 6.9618 13.7925C6.80302 13.9531 6.61046 14.0335 6.38413 14.0335H2.78813C2.5618 14.0335 2.36835 13.9541 2.2078 13.7953C2.04713 13.6364 1.9668 13.4438 1.9668 13.2175ZM3.60013 12.4001H5.5668V10.4335H3.60013V12.4001ZM8.80013 6.38413V2.78813C8.80013 2.5618 8.87957 2.36835 9.03846 2.2078C9.19724 2.04713 9.3898 1.9668 9.61613 1.9668H13.2121C13.4385 1.9668 13.6319 2.04619 13.7925 2.20496C13.9531 2.36385 14.0335 2.55646 14.0335 2.7828V6.3788C14.0335 6.60513 13.9541 6.79857 13.7953 6.95913C13.6364 7.1198 13.4438 7.20013 13.2175 7.20013H9.62146C9.39513 7.20013 9.20169 7.12069 9.04113 6.9618C8.88046 6.80302 8.80013 6.61046 8.80013 6.38413ZM10.4335 5.5668H12.4001V3.60013H10.4335V5.5668ZM12.7298 14.0335V12.7205H14.0335V14.0335H12.7298ZM8.80013 10.1038V8.80013H10.1131V10.1038H8.80013ZM10.1131 11.4168V10.1038H11.4168V11.4168H10.1131ZM8.80013 12.7205V11.4168H10.1131V12.7205H8.80013ZM10.1131 14.0335V12.7205H11.4168V14.0335H10.1131ZM11.4168 12.7205V11.4168H12.7298V12.7205H11.4168ZM11.4168 10.1038V8.80013H12.7298V10.1038H11.4168ZM12.7298 11.4168V10.1038H14.0335V11.4168H12.7298Z" fill="white"/>
</g>
</svg>
