<svg xmlns="http://www.w3.org/2000/svg" width="16" height="16" viewBox="0 0 16 16" fill="none">
    <g clip-path="url(#clip0_3418_163510)">
        <mask id="mask0_3418_163510" style="mask-type:alpha" maskUnits="userSpaceOnUse" x="0" y="0"
            width="16" height="16">
            <rect width="16" height="16" fill="#D9D9D9" />
        </mask>
        <g mask="url(#mask0_3418_163510)">
            <path
                d="M7.1213 8.36996L6.3663 7.63146C6.20641 7.47157 6.02357 7.39163 5.8178 7.39163C5.61202 7.39163 5.42913 7.47157 5.26913 7.63146C5.10924 7.79135 5.03085 7.97702 5.03396 8.18846C5.03719 8.3998 5.11874 8.58541 5.27863 8.7453L6.54463 10.0113C6.71308 10.1774 6.90591 10.2605 7.12313 10.2605C7.34035 10.2605 7.53202 10.1774 7.69813 10.0113L10.6735 7.0358C10.8335 6.87591 10.9135 6.69185 10.9135 6.48363C10.9135 6.27541 10.8335 6.09135 10.6735 5.93146C10.5136 5.77157 10.3307 5.69163 10.125 5.69163C9.91919 5.69163 9.73635 5.77157 9.57646 5.93146L7.1213 8.36996ZM7.99963 14.72C7.07163 14.72 6.19991 14.5452 5.38446 14.1956C4.56913 13.8461 3.85591 13.3657 3.2448 12.7545C2.63357 12.1434 2.15319 11.4301 1.80363 10.6148C1.45407 9.79935 1.2793 8.92763 1.2793 7.99963C1.2793 7.06052 1.45407 6.18602 1.80363 5.37613C2.15319 4.56635 2.63357 3.85591 3.2448 3.2448C3.85591 2.63357 4.56913 2.15319 5.38446 1.80363C6.19991 1.45407 7.07163 1.2793 7.99963 1.2793C8.93874 1.2793 9.81324 1.45407 10.6231 1.80363C11.4329 2.15319 12.1434 2.63357 12.7545 3.2448C13.3657 3.85591 13.8461 4.56635 14.1956 5.37613C14.5452 6.18602 14.72 7.06052 14.72 7.99963C14.72 8.92763 14.5452 9.79935 14.1956 10.6148C13.8461 11.4301 13.3657 12.1434 12.7545 12.7545C12.1434 13.3657 11.4329 13.8461 10.6231 14.1956C9.81324 14.5452 8.93874 14.72 7.99963 14.72ZM7.99963 13.0866C9.41896 13.0866 10.6216 12.5936 11.6076 11.6076C12.5936 10.6216 13.0866 9.41896 13.0866 7.99963C13.0866 6.5803 12.5936 5.37763 11.6076 4.39163C10.6216 3.40563 9.41896 2.91263 7.99963 2.91263C6.5803 2.91263 5.37763 3.40563 4.39163 4.39163C3.40563 5.37763 2.91263 6.5803 2.91263 7.99963C2.91263 9.41896 3.40563 10.6216 4.39163 11.6076C5.37763 12.5936 6.5803 13.0866 7.99963 13.0866Z"
                fill="#1F752D" />
        </g>
    </g>
    <defs>
        <clipPath id="clip0_3418_163510">
            <rect width="16" height="16" fill="white" />
        </clipPath>
    </defs>
</svg>