<svg width="16" height="16" viewBox="0 0 16 16" fill="none" xmlns="http://www.w3.org/2000/svg">
<mask id="mask0_4213_445" style="mask-type:alpha" maskUnits="userSpaceOnUse" x="0" y="0" width="16" height="16">
<rect width="16" height="16" fill="#D9D9D9"/>
</mask>
<g mask="url(#mask0_4213_445)">
<path d="M6.84195 13.5255L3.13178 9.68704C2.83423 9.38948 2.67828 9.03454 2.66395 8.6222C2.64973 8.20987 2.774 7.84309 3.03678 7.52187L5.01728 5.08204C5.1835 4.89215 5.37728 4.7442 5.59861 4.6382C5.82006 4.53209 6.05356 4.47904 6.29911 4.47904H9.72678C9.976 4.47904 10.211 4.53209 10.4318 4.6382C10.6526 4.7442 10.8461 4.89215 11.0123 5.08204L13.0021 7.52187C13.2649 7.84309 13.3876 8.20987 13.3701 8.6222C13.3528 9.03454 13.1953 9.38948 12.8978 9.68704L9.19695 13.5255C8.87073 13.8579 8.477 14.024 8.01578 14.024C7.55445 14.024 7.16317 13.8579 6.84195 13.5255ZM2.23628 2.54204C2.40173 2.38215 2.59523 2.30065 2.81678 2.29754C3.03834 2.29443 3.22906 2.37592 3.38895 2.54204L3.94628 3.1182C4.10617 3.27809 4.18611 3.46565 4.18611 3.68087C4.18611 3.89609 4.10617 4.08365 3.94628 4.24354C3.78639 4.40343 3.59511 4.48337 3.37245 4.48337C3.14978 4.48337 2.96039 4.40343 2.80428 4.24354L2.22811 3.67687C2.06823 3.52098 1.98828 3.33287 1.98828 3.11254C1.98828 2.8922 2.07095 2.70204 2.23628 2.54204ZM8.01595 0.845703C8.2415 0.845703 8.433 0.923591 8.59045 1.07937C8.748 1.23526 8.82678 1.42648 8.82678 1.65304V2.47187C8.82678 2.69831 8.74761 2.88948 8.58928 3.04537C8.43095 3.20115 8.23906 3.27904 8.01361 3.27904C7.78806 3.27904 7.5965 3.19954 7.43895 3.04054C7.2815 2.88165 7.20278 2.68893 7.20278 2.46237V1.65304C7.20278 1.42648 7.28195 1.23526 7.44028 1.07937C7.5985 0.923591 7.79039 0.845703 8.01595 0.845703ZM13.7753 2.54204C13.9352 2.70204 14.0167 2.89398 14.0198 3.11787C14.023 3.34176 13.9446 3.53365 13.7846 3.69354L13.2086 4.2602C13.0497 4.42009 12.8596 4.50165 12.6383 4.50487C12.4171 4.50798 12.2233 4.42643 12.0571 4.2602C11.8972 4.10031 11.8173 3.90904 11.8173 3.68637C11.8173 3.46381 11.8972 3.27443 12.0571 3.1182L12.6333 2.54204C12.7894 2.37592 12.9788 2.29287 13.2014 2.29287C13.4241 2.29287 13.6154 2.37592 13.7753 2.54204ZM5.10928 9.37837L8.01945 12.4095L10.9201 9.37837H5.10928ZM4.94345 7.75437H11.0694L9.75861 6.10304H6.27095L4.94345 7.75437Z" fill="white"/>
</g>
</svg>
