<svg width="40" height="40" viewBox="0 0 40 40" fill="none" xmlns="http://www.w3.org/2000/svg">
<path d="M0 12C0 5.37258 5.37258 0 12 0H28C34.6274 0 40 5.37258 40 12V16H0V12Z" fill="#E1E2EA"/>
<path d="M10.72 11V5.16H12.584L15.04 10.056H15.304L15.144 10.2V5.16H16.216V11H14.344L11.888 6.104H11.616L11.776 5.96V11H10.72ZM20.4015 11.152C19.8735 11.152 19.4148 11.0587 19.0255 10.872C18.6415 10.6853 18.3215 10.4427 18.0655 10.144C17.8148 9.84 17.6255 9.51467 17.4975 9.168C17.3748 8.816 17.3135 8.47733 17.3135 8.152V7.976C17.3135 7.61867 17.3775 7.264 17.5055 6.912C17.6335 6.55467 17.8255 6.232 18.0815 5.944C18.3428 5.656 18.6655 5.42667 19.0495 5.256C19.4335 5.08 19.8842 4.992 20.4015 4.992C20.9135 4.992 21.3615 5.08 21.7455 5.256C22.1295 5.42667 22.4495 5.656 22.7055 5.944C22.9668 6.232 23.1615 6.55467 23.2895 6.912C23.4175 7.264 23.4815 7.61867 23.4815 7.976V8.152C23.4815 8.47733 23.4175 8.816 23.2895 9.168C23.1668 9.51467 22.9775 9.84 22.7215 10.144C22.4708 10.4427 22.1508 10.6853 21.7615 10.872C21.3775 11.0587 20.9242 11.152 20.4015 11.152ZM20.4015 10.096C20.7002 10.096 20.9668 10.0427 21.2015 9.936C21.4415 9.82933 21.6442 9.68267 21.8095 9.496C21.9802 9.304 22.1082 9.088 22.1935 8.848C22.2842 8.60267 22.3295 8.344 22.3295 8.072C22.3295 7.77867 22.2842 7.50933 22.1935 7.264C22.1082 7.01867 21.9802 6.80533 21.8095 6.624C21.6442 6.44267 21.4415 6.30133 21.2015 6.2C20.9615 6.09867 20.6948 6.048 20.4015 6.048C20.1028 6.048 19.8335 6.09867 19.5935 6.2C19.3535 6.30133 19.1482 6.44267 18.9775 6.624C18.8122 6.80533 18.6842 7.01867 18.5935 7.264C18.5082 7.50933 18.4655 7.77867 18.4655 8.072C18.4655 8.344 18.5082 8.60267 18.5935 8.848C18.6842 9.088 18.8122 9.304 18.9775 9.496C19.1482 9.68267 19.3535 9.82933 19.5935 9.936C19.8335 10.0427 20.1028 10.096 20.4015 10.096ZM25.8054 11L23.9414 5.16H25.1174L26.6614 10.216L26.3254 10.056H27.1894L26.8454 10.216L28.2694 5.16H29.4054L27.6774 11H25.8054Z" fill="black"/>
<mask id="path-4-inside-1_2822_438646" fill="white">
<path d="M0 16H40V28C40 34.6274 34.6274 40 28 40H12C5.37258 40 0 34.6274 0 28V16Z"/>
</mask>
<path d="M0 16H40V28C40 34.6274 34.6274 40 28 40H12C5.37258 40 0 34.6274 0 28V16Z" fill="white"/>
<path d="M0 16H40H0ZM41 28C41 35.1797 35.1797 41 28 41H12C4.8203 41 -1 35.1797 -1 28H1C1 34.0751 5.92487 39 12 39H28C34.0751 39 39 34.0751 39 28H41ZM12 41C4.8203 41 -1 35.1797 -1 28V16H1V28C1 34.0751 5.92487 39 12 39V41ZM41 16V28C41 35.1797 35.1797 41 28 41V39C34.0751 39 39 34.0751 39 28V16H41Z" fill="#E1E2EA" mask="url(#path-4-inside-1_2822_438646)"/>
<path d="M15.96 33V22.728L16.664 23.272H13.576V21.32H18.216V33H15.96ZM22.7569 33V22.728L23.4609 23.272H20.3729V21.32H25.0129V33H22.7569Z" fill="black"/>
</svg>
