<svg width="500" height="500" viewBox="0 0 500 500" fill="none" xmlns="http://www.w3.org/2000/svg">
<path d="M199.799 32.8977L190.174 26.7272L184.924 36.8835L157.54 89.8553L97.9733 87.0843L86.5525 86.553L87.0838 97.9738L89.8549 157.541L36.883 184.924L26.7267 190.174L32.8972 199.799L65.0803 250L32.8972 300.201L26.7267 309.826L36.883 315.076L89.8549 342.46L87.0838 402.027L86.5526 413.448L97.9733 412.916L157.54 410.145L184.924 463.117L190.174 473.273L199.799 467.103L250 434.92L300.201 467.103L309.826 473.273L315.076 463.117L342.46 410.145L402.026 412.916L413.447 413.448L412.916 402.027L410.145 342.46L463.117 315.076L473.273 309.826L467.103 300.201L434.919 250L467.103 199.799L473.273 190.174L463.117 184.924L410.145 157.541L412.916 97.9738L413.447 86.553L402.026 87.0843L342.46 89.8553L315.076 36.8835L309.826 26.7272L300.201 32.8977L250 65.0808L199.799 32.8977Z" fill="#FF0420" stroke="white" stroke-width="20.8333"/>
<path d="M168.675 176.85C168.675 176.85 175.23 196.197 184.116 205.083C193.002 213.969 212.349 220.524 212.349 220.524C212.349 220.524 193.002 227.079 184.116 235.966C175.23 244.852 168.675 264.199 168.675 264.199C168.675 264.199 162.12 244.852 153.233 235.966C144.347 227.079 125 220.524 125 220.524C125 220.524 144.347 213.969 153.233 205.083C162.12 196.197 168.675 176.85 168.675 176.85Z" fill="white"/>
<path d="M331.325 176.85C331.325 176.85 337.88 196.197 346.766 205.083C355.653 213.969 375 220.524 375 220.524C375 220.524 355.653 227.079 346.766 235.966C337.88 244.852 331.325 264.199 331.325 264.199C331.325 264.199 324.77 244.852 315.884 235.966C306.997 227.079 287.65 220.524 287.65 220.524C287.65 220.524 306.997 213.969 315.884 205.083C324.77 196.197 331.325 176.85 331.325 176.85Z" fill="white"/>
<path d="M275.602 268.717C275.602 285.343 264.916 293.89 250.776 294.305C236.214 294.733 224.397 285.343 224.397 268.717" stroke="white" stroke-width="15.0602" stroke-linecap="round"/>
</svg>
