<svg width="30" height="30" viewBox="0 0 30 30" fill="none" xmlns="http://www.w3.org/2000/svg">
<g clip-path="url(#clip0_1347_131864)">
<path d="M11.9879 1.97384L11.4104 1.60361L11.0954 2.21299L9.45241 5.3913L5.87841 5.22504L5.19316 5.19316L5.22504 5.87841L5.3913 9.45241L2.21299 11.0954L1.60361 11.4104L1.97384 11.9879L3.90483 15L1.97384 18.012L1.60361 18.5896L2.21299 18.9046L5.3913 20.5476L5.22504 24.1216L5.19316 24.8068L5.87841 24.775L9.45241 24.6087L11.0954 27.787L11.4104 28.3964L11.988 28.0262L15 26.0952L18.012 28.0262L18.5896 28.3964L18.9046 27.787L20.5476 24.6087L24.1216 24.775L24.8068 24.8068L24.775 24.1216L24.6087 20.5476L27.787 18.9046L28.3964 18.5896L28.0262 18.012L26.0952 15L28.0262 11.9879L28.3964 11.4104L27.787 11.0954L24.6087 9.45241L24.775 5.87841L24.8068 5.19316L24.1216 5.22504L20.5476 5.3913L18.9046 2.21299L18.5896 1.60361L18.012 1.97384L15 3.90483L11.9879 1.97384Z" fill="#FF0420" stroke="white" stroke-width="1.25"/>
<path d="M10.6205 10.8457C10.6205 10.8457 11.0138 12.0065 11.547 12.5397C12.0801 13.0729 13.241 13.4662 13.241 13.4662C13.241 13.4662 12.0801 13.8595 11.547 14.3927C11.0138 14.9258 10.6205 16.0867 10.6205 16.0867C10.6205 16.0867 10.2272 14.9258 9.694 14.3927C9.16082 13.8595 8 13.4662 8 13.4662C8 13.4662 9.16082 13.0729 9.694 12.5397C10.2272 12.0065 10.6205 10.8457 10.6205 10.8457Z" fill="white"/>
<path d="M20.3793 10.8457C20.3793 10.8457 20.7726 12.0065 21.3058 12.5397C21.8389 13.0729 22.9998 13.4662 22.9998 13.4662C22.9998 13.4662 21.8389 13.8595 21.3058 14.3927C20.7726 14.9258 20.3793 16.0867 20.3793 16.0867C20.3793 16.0867 19.986 14.9258 19.4528 14.3927C18.9196 13.8595 17.7588 13.4662 17.7588 13.4662C17.7588 13.4662 18.9196 13.0729 19.4528 12.5397C19.986 12.0065 20.3793 10.8457 20.3793 10.8457Z" fill="white"/>
<path d="M17.0362 16.3574C17.0362 17.355 16.395 17.8678 15.5466 17.8927C14.6729 17.9184 13.9639 17.355 13.9639 16.3574" stroke="white" stroke-width="0.903614" stroke-linecap="round"/>
</g>
<defs>
<clipPath id="clip0_1347_131864">
<rect width="30" height="30" fill="white"/>
</clipPath>
</defs>
</svg>
