<svg width="20" height="20" viewBox="0 0 20 20" fill="none" xmlns="http://www.w3.org/2000/svg">
<g id="encrypted">
<mask id="mask0_2197_55479" style="mask-type:alpha" maskUnits="userSpaceOnUse" x="0" y="0" width="20" height="20">
<rect id="Bounding box" width="20" height="20" fill="#D9D9D9"/>
</mask>
<g mask="url(#mask0_2197_55479)">
<path id="encrypted_2" d="M9.2487 12.4993H10.7487C10.8737 12.4993 10.9813 12.4473 11.0716 12.3431C11.1619 12.2389 11.1931 12.1243 11.1654 11.9993L10.7695 9.81185C11.0473 9.67296 11.2661 9.47157 11.4258 9.20768C11.5855 8.94379 11.6654 8.65213 11.6654 8.33268C11.6654 7.87435 11.5022 7.48199 11.1758 7.1556C10.8494 6.82921 10.457 6.66602 9.9987 6.66602C9.54036 6.66602 9.148 6.82921 8.82161 7.1556C8.49523 7.48199 8.33203 7.87435 8.33203 8.33268C8.33203 8.65213 8.41189 8.94379 8.57161 9.20768C8.73134 9.47157 8.95009 9.67296 9.22786 9.81185L8.83203 11.9993C8.80425 12.1243 8.8355 12.2389 8.92578 12.3431C9.01606 12.4473 9.1237 12.4993 9.2487 12.4993ZM9.9987 18.2493C9.90148 18.2493 9.8112 18.2424 9.72786 18.2285C9.64453 18.2146 9.5612 18.1938 9.47786 18.166C7.60286 17.541 6.10981 16.3848 4.9987 14.6973C3.88759 13.0098 3.33203 11.1938 3.33203 9.24935V5.31185C3.33203 4.96463 3.43273 4.65213 3.63411 4.37435C3.8355 4.09657 4.09592 3.89518 4.41536 3.77018L9.41536 1.89518C9.60981 1.82574 9.80425 1.79102 9.9987 1.79102C10.1931 1.79102 10.3876 1.82574 10.582 1.89518L15.582 3.77018C15.9015 3.89518 16.1619 4.09657 16.3633 4.37435C16.5647 4.65213 16.6654 4.96463 16.6654 5.31185V9.24935C16.6654 11.1938 16.1098 13.0098 14.9987 14.6973C13.8876 16.3848 12.3945 17.541 10.5195 18.166C10.4362 18.1938 10.3529 18.2146 10.2695 18.2285C10.1862 18.2424 10.0959 18.2493 9.9987 18.2493ZM9.9987 16.5827C11.4431 16.1243 12.6376 15.2077 13.582 13.8327C14.5265 12.4577 14.9987 10.9299 14.9987 9.24935V5.31185L9.9987 3.43685L4.9987 5.31185V9.24935C4.9987 10.9299 5.47092 12.4577 6.41536 13.8327C7.35981 15.2077 8.55425 16.1243 9.9987 16.5827Z" fill="#0B0B0B"/>
</g>
</g>
</svg>
